<?xml version="1.0" standalone="no"?>
<!DOCTYPE svg PUBLIC "-//W3C//DTD SVG 20010904//EN"
 "http://www.w3.org/TR/2001/REC-SVG-20010904/DTD/svg10.dtd">
<svg version="1.0" xmlns="http://www.w3.org/2000/svg"
 width="194.000000pt" height="259.000000pt" viewBox="0 0 194.000000 259.000000"
 preserveAspectRatio="xMidYMid meet">
<metadata>
Created by potrace 1.16, written by Peter Selinger 2001-2019
</metadata>
<g transform="translate(0.000000,259.000000) scale(0.100000,-0.100000)"
fill="#000000" stroke="none">
<path d="M985 2502 c-204 -15 -403 -223 -466 -487 -35 -145 -49 -177 -98 -226
-37 -38 -60 -51 -117 -68 -88 -26 -115 -53 -122 -121 -5 -60 3 -65 18 -11 12
44 44 70 98 78 l37 6 -35 -24 c-19 -13 -46 -45 -59 -72 -29 -59 -23 -121 16
-168 l26 -31 -61 4 c-34 1 -62 2 -62 0 0 -15 25 -41 48 -51 l29 -12 -24 -46
c-28 -57 -31 -151 -6 -209 l17 -39 7 46 c6 42 24 89 33 89 2 0 1 -20 -1 -44
-6 -48 16 -126 46 -165 18 -23 17 -23 -34 -75 -49 -49 -74 -89 -91 -146 -6
-22 -5 -23 9 -11 15 11 18 10 27 -10 9 -21 10 -20 7 13 -3 38 12 56 35 41 7
-3 8 -1 4 5 -7 12 47 45 58 35 3 -4 6 -15 6 -26 0 -19 32 -55 67 -76 16 -9 16
-12 3 -21 -10 -6 -11 -10 -2 -10 8 0 12 -20 12 -67 0 -74 -8 -75 -41 -6 -9 21
-18 30 -18 21 -1 -9 -12 -25 -26 -36 -25 -20 -34 -52 -14 -52 6 0 8 -7 5 -16
-3 -8 -2 -13 3 -10 5 3 13 -6 19 -22 5 -15 19 -51 31 -81 17 -41 18 -51 7 -42
-9 8 -13 18 -9 24 3 6 1 7 -6 3 -7 -5 -29 6 -54 26 -23 19 -55 42 -71 52 -23
14 -26 20 -15 28 10 7 9 8 -6 4 -13 -4 -31 3 -49 19 -31 27 -39 24 -50 -12 -6
-17 -1 -25 21 -37 15 -8 39 -25 52 -38 14 -12 56 -46 95 -74 39 -28 70 -57 68
-64 -2 -8 3 -10 13 -7 8 4 15 2 15 -3 0 -6 6 -10 13 -10 30 0 66 -50 78 -110
6 -33 15 -63 20 -65 30 -19 348 -55 484 -55 99 0 331 23 414 41 46 10 51 14
61 47 5 20 10 42 10 49 0 6 17 22 38 34 20 13 64 45 96 71 33 26 66 48 73 48
7 0 13 3 13 8 0 4 32 30 70 57 55 40 69 55 69 77 1 26 0 27 -26 15 -16 -6 -32
-15 -38 -20 -91 -71 -155 -117 -164 -117 -22 0 -23 54 -2 142 23 92 23 122 1
68 -7 -16 -17 -27 -23 -23 -6 4 -8 0 -4 -11 5 -11 3 -15 -5 -10 -7 5 -9 2 -6
-7 3 -8 -3 -30 -13 -49 -11 -19 -17 -26 -15 -15 3 11 8 65 11 120 3 55 8 120
10 145 8 68 -9 24 -40 -109 -14 -62 -31 -125 -37 -140 -6 -14 -12 -30 -12 -36
-5 -40 -36 -106 -47 -99 -5 3 -7 -1 -4 -8 3 -7 -4 -24 -15 -38 -11 -14 -20
-19 -20 -12 0 7 -5 10 -11 6 -8 -4 -7 -9 2 -15 11 -6 5 -17 -24 -46 -31 -32
-39 -36 -48 -23 -8 12 -9 11 -7 -5 4 -30 -94 -74 -198 -87 -83 -12 -220 -1
-261 20 -10 5 -47 22 -83 38 -43 20 -85 49 -127 91 -35 34 -63 66 -63 72 0 5
-6 16 -13 23 -19 21 -49 91 -35 82 8 -5 6 2 -4 17 -17 27 -62 218 -53 227 3 3
5 0 5 -6 0 -6 12 -17 28 -24 15 -7 27 -18 27 -25 0 -6 4 -15 9 -20 5 -5 6 -2
1 6 -8 15 19 9 65 -14 14 -7 44 -16 68 -20 23 -4 42 -11 42 -16 0 -5 13 -28
30 -50 16 -23 27 -46 24 -50 -3 -5 -2 -8 3 -7 12 4 68 -55 65 -67 -2 -5 0 -7
3 -3 4 4 28 -4 52 -19 l45 -26 53 26 c42 22 175 137 175 153 0 11 63 89 71 87
4 -2 6 4 3 12 -8 20 6 19 22 -3 12 -15 13 -14 4 11 -8 23 -5 37 16 80 15 29
31 54 35 55 5 2 7 7 4 12 -3 5 6 39 20 77 13 38 27 94 31 124 l6 56 54 -20
c46 -17 52 -22 42 -35 -11 -13 -10 -14 6 -5 23 12 59 0 137 -48 27 -17 53 -28
57 -24 4 4 9 43 10 88 3 75 1 87 -27 139 -29 56 -29 57 -6 42 38 -25 59 -93
53 -169 l-6 -65 20 25 c63 80 80 204 40 282 -21 41 -77 93 -100 93 -7 0 -12 5
-12 11 0 10 16 7 66 -11 31 -12 74 -68 74 -96 0 -14 4 -22 10 -19 13 8 13 60
0 106 -14 50 -60 93 -127 118 -84 31 -96 43 -96 94 0 29 13 71 41 133 60 129
69 179 49 252 -13 46 -14 66 -5 94 7 25 7 41 0 54 -11 18 -11 18 -12 -3 0 -28
-17 -38 -36 -22 -13 10 -13 14 2 30 19 21 12 48 -17 75 -20 18 -20 18 -14 -7
4 -17 1 -30 -8 -38 -12 -10 -20 0 -48 56 -45 91 -101 145 -177 173 -48 18 -62
27 -67 48 -22 89 -134 145 -270 134z m141 -299 c52 -14 69 -15 84 -5 28 17 30
16 30 -20 0 -32 29 -149 39 -158 3 -3 15 -16 26 -30 19 -24 19 -24 0 -10 -19
15 -19 15 0 -12 11 -14 22 -26 25 -26 21 1 28 -6 33 -29 7 -33 -19 -311 -34
-367 -18 -66 8 -60 64 16 44 59 50 108 16 132 -20 14 -19 36 2 36 20 0 49 -41
49 -70 0 -36 -28 -94 -67 -140 -34 -40 -40 -105 -14 -135 30 -34 33 -55 9 -64
-14 -5 -17 -10 -10 -15 16 -10 15 -66 -1 -66 -7 0 -18 5 -25 12 -9 9 -12 6
-12 -15 0 -20 -4 -25 -15 -20 -42 15 -61 139 -29 187 27 42 -2 37 -32 -5 -15
-22 -47 -58 -71 -79 -24 -20 -43 -43 -43 -49 0 -7 -3 -10 -7 -8 -5 3 -9 -50
-9 -117 -1 -66 0 -102 3 -78 2 23 8 42 13 42 5 0 43 -16 85 -35 l75 -34 -6
-43 c-25 -179 -135 -401 -258 -523 -64 -63 -114 -90 -149 -81 -30 7 -114 88
-140 134 l-18 32 60 0 61 0 -34 44 c-40 53 -51 102 -35 155 l12 40 38 -20 c53
-27 59 -24 13 7 -21 15 -40 27 -42 29 -1 1 7 23 19 49 33 75 29 167 -15 301
-19 60 -33 111 -31 113 2 3 -3 11 -11 20 -9 8 -13 23 -11 34 3 11 1 16 -6 11
-7 -4 -8 0 -4 11 4 9 3 15 -1 12 -11 -6 -64 43 -58 53 3 4 -1 8 -9 8 -8 0 -17
-7 -19 -14 -3 -8 -2 -12 3 -9 17 11 -8 -67 -28 -87 -23 -24 -33 -19 -33 17 0
22 -4 25 -24 20 -20 -5 -24 -2 -24 18 0 13 5 29 12 36 9 9 8 12 -5 12 -25 0
-21 28 11 59 38 38 36 94 -6 188 -37 83 -41 130 -12 161 12 12 25 22 30 22 14
0 50 -51 51 -74 1 -11 9 25 19 81 18 101 50 170 73 156 6 -3 7 -1 3 5 -8 13
28 75 37 65 4 -3 7 0 7 8 0 11 2 11 10 -1 6 -9 10 -10 10 -3 0 6 -5 15 -11 19
-12 7 42 68 76 86 11 6 17 7 13 3 -4 -5 -2 -15 4 -24 10 -13 10 -14 -2 -3 -19
16 -27 15 -34 -4 -5 -12 -2 -15 10 -10 14 5 15 4 4 -9 -7 -9 -20 -13 -28 -10
-13 5 -13 3 -1 -12 12 -15 12 -16 -3 -10 -12 4 -15 2 -11 -9 4 -11 18 -3 57
33 28 27 50 52 48 57 -2 5 5 6 14 2 9 -3 22 -2 28 3 29 24 82 25 162 4z"/>
<path d="M785 2019 c-4 -6 -14 -8 -22 -5 -8 3 -11 1 -8 -5 4 -5 -5 -22 -19
-36 -35 -35 -33 -49 3 -24 42 30 88 27 115 -6 11 -15 21 -32 21 -38 0 -15 19
-34 28 -28 4 2 6 1 5 -4 -1 -4 2 -18 6 -31 7 -22 8 -22 21 -5 10 14 13 14 12
3 -1 -8 3 -37 7 -64 6 -32 11 -44 17 -35 11 18 11 126 0 133 -5 3 -12 21 -15
40 -10 52 -41 84 -98 101 -61 18 -65 18 -73 4z"/>
<path d="M790 1537 c0 -19 34 -117 55 -156 12 -25 20 -31 33 -25 9 4 45 6 79
5 52 -2 70 2 108 25 48 27 103 89 91 101 -4 4 -18 -7 -32 -25 -46 -58 -163
-67 -249 -19 -31 17 -43 32 -53 65 -13 40 -32 57 -32 29z"/>
</g>
</svg>
