<?xml version="1.0" standalone="no"?>
<!DOCTYPE svg PUBLIC "-//W3C//DTD SVG 20010904//EN"
 "http://www.w3.org/TR/2001/REC-SVG-20010904/DTD/svg10.dtd">
<svg version="1.0" xmlns="http://www.w3.org/2000/svg"
 width="736.000000pt" height="736.000000pt" viewBox="0 0 736.000000 736.000000"
 preserveAspectRatio="xMidYMid meet">
<metadata>
Created by potrace 1.16, written by Peter Selinger 2001-2019
</metadata>
<g transform="translate(0.000000,736.000000) scale(0.100000,-0.100000)"
fill="#000000" stroke="none">
<path d="M0 3680 l0 -3680 3680 0 3680 0 0 3680 0 3680 -3680 0 -3680 0 0
-3680z m3714 2085 c-42 -132 -58 -256 -44 -345 26 -170 73 -306 190 -555 74
-158 113 -244 142 -315 6 -14 14 -33 19 -42 5 -10 9 -25 9 -33 0 -8 4 -23 9
-33 10 -21 27 -76 36 -119 10 -49 27 -40 52 25 37 94 46 165 39 312 l-7 135
23 -26 c148 -169 265 -410 298 -614 6 -38 13 -83 16 -100 8 -42 23 -203 30
-318 6 -82 9 -97 22 -95 18 4 91 103 120 163 41 84 45 103 47 225 2 69 4 126
4 128 2 8 51 -58 93 -123 69 -110 111 -203 138 -306 13 -53 8 -235 -9 -314
-21 -96 -29 -130 -45 -189 -9 -32 -14 -61 -11 -64 18 -18 115 120 192 275 99
196 104 188 78 -122 -21 -252 -39 -368 -86 -547 -13 -48 -27 -92 -40 -125 -5
-13 -13 -33 -18 -45 -54 -143 -176 -321 -312 -457 -112 -113 -271 -222 -359
-248 -30 -8 -83 -24 -117 -34 -63 -19 -207 -26 -217 -11 -3 5 6 30 19 58 45
93 102 209 112 229 55 105 78 259 63 415 -6 58 -12 125 -14 148 -6 74 -20 69
-62 -23 -21 -46 -42 -85 -46 -85 -5 0 -8 35 -8 78 0 98 -15 182 -45 247 -24
53 -105 156 -117 149 -3 -2 -10 -29 -13 -59 -8 -61 -22 -72 -32 -25 -3 17 -10
33 -14 36 -5 3 -9 12 -9 20 0 8 -9 36 -21 62 -12 26 -26 58 -31 72 -6 14 -14
33 -19 42 -5 10 -9 27 -9 37 0 11 -4 22 -9 25 -10 6 -17 44 -30 149 -4 37 -11
70 -14 73 -10 10 -27 -6 -27 -27 0 -10 -4 -27 -9 -37 -5 -9 -14 -37 -21 -62
-6 -25 -16 -59 -21 -76 -5 -17 -9 -43 -9 -58 0 -15 -4 -46 -10 -69 -5 -23 -12
-95 -16 -159 -7 -131 -16 -145 -55 -81 -34 54 -78 102 -110 118 -28 15 -139
32 -139 22 0 -3 13 -28 29 -55 49 -84 71 -160 71 -248 -1 -71 -17 -164 -31
-179 -3 -3 -26 20 -50 50 -59 74 -110 114 -150 117 -49 4 -49 -7 -7 -192 35
-154 111 -333 187 -443 17 -25 31 -49 31 -53 0 -3 19 -34 43 -68 43 -60 97
-161 97 -179 0 -12 -267 0 -291 14 -10 5 -28 9 -41 9 -37 0 -127 37 -187 76
-155 102 -327 336 -429 584 -13 30 -28 63 -33 72 -5 10 -9 25 -9 33 0 8 -4 23
-9 33 -14 28 -31 87 -31 108 0 11 -4 24 -8 30 -4 5 -14 27 -21 49 -7 22 -16
49 -20 60 -5 11 -13 31 -18 45 -69 170 -164 297 -336 450 -53 46 -94 86 -92
89 5 5 70 -18 250 -89 11 -5 58 -22 105 -40 47 -18 95 -36 108 -41 12 -5 32
-13 45 -18 12 -4 34 -13 50 -20 15 -6 37 -15 50 -20 12 -5 44 -19 71 -31 78
-34 80 -31 73 126 -7 162 -15 191 -87 333 -23 47 -70 128 -104 180 -92 143
-93 135 11 127 152 -12 256 -59 410 -184 24 -19 49 -32 56 -29 26 10 31 427 5
443 -4 3 -8 16 -8 30 0 13 -4 32 -9 42 -5 9 -28 56 -50 104 -23 47 -69 133
-101 190 -33 56 -60 108 -60 115 0 19 165 2 275 -30 84 -24 166 -72 292 -174
46 -37 52 -34 71 32 25 87 34 183 28 290 -18 336 -19 389 -1 475 28 146 95
311 167 417 15 23 28 46 28 52 0 6 4 11 8 11 5 0 15 12 23 28 13 25 41 61 46
58 1 -1 -9 -38 -23 -81z"/>
</g>
</svg>
