<?xml version="1.0" standalone="no"?>
<!DOCTYPE svg PUBLIC "-//W3C//DTD SVG 20010904//EN"
 "http://www.w3.org/TR/2001/REC-SVG-20010904/DTD/svg10.dtd">
<svg version="1.0" xmlns="http://www.w3.org/2000/svg"
 width="920.000000pt" height="920.000000pt" viewBox="0 0 920.000000 920.000000"
 preserveAspectRatio="xMidYMid meet">
<metadata>
Created by potrace 1.16, written by Peter Selinger 2001-2019
</metadata>
<g transform="translate(0.000000,920.000000) scale(0.100000,-0.100000)"
fill="#000000" stroke="none">
<path d="M4260 8470 c-722 -72 -1353 -308 -1932 -721 -506 -361 -930 -864
-1208 -1434 -205 -419 -319 -804 -377 -1275 -24 -204 -24 -676 0 -880 58 -473
173 -858 382 -1285 272 -554 680 -1045 1170 -1408 330 -244 688 -432 1064
-557 152 -50 430 -124 438 -116 3 2 9 71 14 153 76 1295 318 2425 708 3308 34
77 87 186 117 243 30 57 54 105 54 108 0 15 -155 -135 -234 -227 -389 -452
-749 -1206 -936 -1959 -21 -85 -44 -184 -51 -220 -6 -36 -13 -66 -15 -68 -5
-8 -67 32 -165 104 -335 249 -553 592 -634 998 -83 417 -45 870 110 1302 105
293 313 659 521 919 331 411 854 829 1346 1076 456 229 996 367 1589 408 132
9 386 14 379 8 -3 -3 -48 -33 -100 -68 -133 -89 -336 -293 -423 -424 -152
-231 -259 -521 -313 -855 -32 -192 -18 -650 32 -1070 60 -504 75 -922 40
-1125 -49 -291 -157 -574 -302 -792 -64 -96 -197 -240 -291 -315 -209 -166
-543 -308 -785 -333 l-67 -7 -6 -52 c-18 -161 -23 -317 -22 -723 1 -248 6
-455 10 -460 14 -13 570 -9 682 5 505 65 894 184 1330 405 894 455 1560 1221
1903 2187 86 244 163 595 194 890 16 153 16 603 0 765 -133 1329 -922 2485
-2109 3088 -403 204 -786 324 -1245 388 -123 17 -214 22 -468 24 -173 2 -353
0 -400 -5z"/>
</g>
</svg>
